<?xml version="1.0" encoding="UTF-8"?>
<svg width="33px" height="33px" viewBox="0 0 33 33" version="1.1" xmlns="http://www.w3.org/2000/svg" xmlns:xlink="http://www.w3.org/1999/xlink">
    <!-- Generator: sketchtool 63.1 (101010) - https://sketch.com -->
    <title>8173147A-61EA-4976-B0A4-123404BDF826</title>
    <desc>Created with sketchtool.</desc>
    <g id="Footers" stroke="none" stroke-width="1" fill="none" fill-rule="evenodd">
        <g id="footer-Mobile" transform="translate(-219.000000, -73.000000)">
            <g id="footer-mobile" transform="translate(-6.000000, -25.000000)">
                <g id="Group">
                    <g id="Group-15" transform="translate(0.000000, 46.000000)">
                        <g id="icon-instagram" transform="translate(225.000000, 52.000000)">
                            <path d="M33,16.4997055 C33,25.6125689 25.6125689,33 16.5,33 C7.38713651,33 0,25.6125689 0,16.4997055 C0,7.38743105 7.38713651,0 16.5,0 C25.6125689,0 33,7.38743105 33,16.4997055" id="Fill-11" fill="#666666"></path>
                            <path d="M23.8888889,22.0868276 C23.8888889,23.0809511 23.099509,23.8888889 22.1289645,23.8888889 L10.8699291,23.8888889 C9.89966123,23.8888889 9.11111111,23.0809511 9.11111111,22.0868276 L9.11111111,15.3634586 L9.11111111,14.3888889 L11.8507074,14.3888889 C11.7821138,14.5609051 11.7237538,14.7380223 11.6736916,14.9191069 C11.5497805,15.363742 11.48174,15.8327483 11.48174,16.3179078 C11.48174,19.1532 13.7331599,21.4599744 16.5001383,21.4599744 C19.2671167,21.4599744 21.5185365,19.1532 21.5185365,16.3179078 C21.5185365,15.8327483 21.4499429,15.363742 21.3254787,14.9188236 C21.2751398,14.7380223 21.2165033,14.5606217 21.1481863,14.3888889 L23.8888889,14.3888889 L23.8888889,15.3640254 L23.8888889,22.0868276 Z M13.9327255,14.6538626 C14.5093457,13.8559581 15.4435408,13.3333333 16.5,13.3333333 C17.5564592,13.3333333 18.4906543,13.8559581 19.0670034,14.6538626 C19.1364038,14.7501427 19.1987558,14.8515759 19.2573124,14.9557211 C19.5153954,15.4132551 19.6666667,15.9394056 19.6666667,16.5 C19.6666667,18.2460603 18.2447707,19.6666667 16.5,19.6666667 C14.7538738,19.6666667 13.3333333,18.2460603 13.3333333,16.5 C13.3333333,15.9391344 13.4846046,15.4129839 13.7426876,14.9551787 C13.8015153,14.8515759 13.8635962,14.7501427 13.9327255,14.6538626 L13.9327255,14.6538626 Z M23.4766168,9.11363681 L23.8888889,9.11111111 L23.8888889,9.52223896 L23.8888889,12.2673943 L20.7334865,12.2777778 L20.7222222,9.12177518 L23.4766168,9.11363681 Z M22.3271897,7 L10.6713786,7 C8.64642233,7 7,8.64642233 7,10.6710923 L7,14.550636 L7,15.9782989 L7,22.3286214 C7,24.353005 8.64642233,26 10.6713786,26 L22.3271897,26 C24.352146,26 26,24.353005 26,22.3286214 L26,15.9805895 L26,14.550636 L26,10.6710923 C26,8.64642233 24.352146,7 22.3271897,7 L22.3271897,7 Z" id="Fill-13" fill="#FFFFFF"></path>
                        </g>
                    </g>
                </g>
            </g>
        </g>
    </g>
</svg>