<?xml version="1.0" encoding="UTF-8"?>
<svg width="33px" height="33px" viewBox="0 0 33 33" version="1.1" xmlns="http://www.w3.org/2000/svg" xmlns:xlink="http://www.w3.org/1999/xlink">
    <!-- Generator: sketchtool 63.1 (101010) - https://sketch.com -->
    <title>AA9DB7CC-AA74-4BC1-A17E-42C78BF73432</title>
    <desc>Created with sketchtool.</desc>
    <defs>
        <polygon id="path-1" points="2.92035398e-05 0.281054867 32.7187991 0.281054867 32.7187991 33 2.92035398e-05 33"></polygon>
    </defs>
    <g id="Footers" stroke="none" stroke-width="1" fill="none" fill-rule="evenodd">
        <g id="footer-Mobile" transform="translate(-123.000000, -73.000000)">
            <g id="footer-mobile" transform="translate(-6.000000, -25.000000)">
                <g id="Group">
                    <g id="Group-15" transform="translate(0.000000, 46.000000)">
                        <g id="icon-twitter" transform="translate(129.000000, 52.000000)">
                            <g id="Group-17">
                                <mask id="mask-2" fill="white">
                                    <use xlink:href="#path-1"></use>
                                </mask>
                                <g id="Clip-16"></g>
                                <path d="M32.7187991,16.6405858 C32.7187991,25.675285 25.3948434,33.0001168 16.3598522,33.0001168 C7.3251531,33.0001168 2.92035398e-05,25.675285 2.92035398e-05,16.6405858 C2.92035398e-05,7.60559469 7.3251531,0.281054867 16.3598522,0.281054867 C25.3948434,0.281054867 32.7187991,7.60559469 32.7187991,16.6405858" id="Fill-15" fill="#666666" mask="url(#mask-2)"></path>
                            </g>
                            <path d="M26,10.7759254 C25.3016727,11.077423 24.5509494,11.2800226 23.7618596,11.3715739 C24.5672694,10.90308 25.1839964,10.161345 25.4763261,9.27606669 C24.7233122,9.71065273 23.8878391,10.025996 22.9996835,10.195818 C22.2899036,9.46001695 21.2766275,9 20.1556962,9 C18.0031646,9 16.2583484,10.6959593 16.2583484,12.7869455 C16.2583484,13.083922 16.2929928,13.3715739 16.3579867,13.6496185 C13.1191682,13.4919469 10.2465491,11.9836112 8.32450271,9.69285109 C7.98951175,10.2520486 7.79596142,10.9027974 7.79596142,11.5967788 C7.79596142,12.9098615 8.48569922,14.068946 9.53047016,14.748234 C8.89226944,14.7287369 8.29014467,14.5583498 7.76475286,14.2749364 L7.76475286,14.3221249 C7.76475286,14.8070076 7.86066908,15.26872 8.03131404,15.6945465 C8.50745931,16.8821701 9.57914406,17.7793162 10.8919078,18.0367335 C10.5640747,18.1217858 10.2207806,18.1692569 9.86402954,18.1692569 C9.61378843,18.1692569 9.36955998,18.1455213 9.13077155,18.1003108 C9.62781796,19.6046906 11.0671338,20.7001978 12.7721519,20.7301498 C11.4376281,21.7468211 9.75809222,22.3517943 7.93081676,22.3517943 C7.61558168,22.3517943 7.30607294,22.3339927 7,22.2989545 C8.72649186,23.3729867 10.7762357,24 12.9757233,24 C19.0694093,24 22.8138638,19.8338514 23.8016576,15.5117265 C23.9765973,14.7479514 24.0667872,13.978525 24.0667872,13.22577 C24.0667872,13.0627296 24.0636377,12.8982763 24.0564798,12.7360836 C24.8172242,12.202317 25.4786166,11.535462 26,10.7759254" id="Fill-18" fill="#FFFFFF"></path>
                        </g>
                    </g>
                </g>
            </g>
        </g>
    </g>
</svg>