<?xml version="1.0" encoding="UTF-8"?>
<svg width="33px" height="33px" viewBox="0 0 33 33" version="1.1" xmlns="http://www.w3.org/2000/svg" xmlns:xlink="http://www.w3.org/1999/xlink">
    <!-- Generator: sketchtool 63.1 (101010) - https://sketch.com -->
    <title>A5BE6C57-E4B6-452F-A90B-BD7A5249C3EB</title>
    <desc>Created with sketchtool.</desc>
    <defs>
        <polygon id="path-1" points="0.217770796 0.150982301 32.9371248 0.150982301 32.9371248 32.869869 0.217770796 32.869869"></polygon>
    </defs>
    <g id="Footers" stroke="none" stroke-width="1" fill="none" fill-rule="evenodd">
        <g id="footer-Mobile" transform="translate(-171.000000, -72.000000)">
            <g id="footer-mobile" transform="translate(-6.000000, -25.000000)">
                <g id="Group">
                    <g id="Group-15" transform="translate(0.000000, 46.000000)">
                        <g id="icon-facebook" transform="translate(177.000000, 51.000000)">
                            <mask id="mask-2" fill="white">
                                <use xlink:href="#path-1"></use>
                            </mask>
                            <g id="Clip-2"></g>
                            <g id="Group-6" mask="url(#mask-2)">
                                <g transform="translate(0.217771, 0.150807)">
                                    <path d="M32.719354,16.359531 C32.719354,25.3945221 25.3948142,32.7190619 16.359823,32.7190619 C7.32453982,32.7190619 5.54223334e-13,25.3945221 5.54223334e-13,16.359531 C5.54223334e-13,7.32483186 7.32453982,-1.0658141e-14 16.359823,-1.0658141e-14 C25.3948142,-1.0658141e-14 32.719354,7.32483186 32.719354,16.359531" id="Fill-1" fill="#666666"></path>
                                    <path d="M17.7169339,12.8494642 L17.7169339,11.2499344 C17.7169339,10.4708154 18.218274,10.2893726 18.5699387,10.2893726 L20.7331124,10.2893726 L20.7331124,6.86215312 L17.7535535,6.84919292 C14.4464524,6.84919292 13.6948782,9.40536635 13.6948782,11.041667 L13.6948782,12.8494642 L11.7822292,12.8494642 L11.7822292,15.2660894 L11.7822292,16.8490422 L13.7111535,16.8490422 L13.7111535,26.8491929 L17.5678397,26.8491929 L17.5678397,16.8490422 L20.4305645,16.8490422 L20.569196,15.2781454 L20.7822292,12.8494642 L17.7169339,12.8494642 Z" id="Fill-4" fill="#FFFFFF"></path>
                                </g>
                            </g>
                        </g>
                    </g>
                </g>
            </g>
        </g>
    </g>
</svg>