<?xml version="1.0" encoding="UTF-8"?>
<svg width="283px" height="99px" viewBox="0 0 283 99" version="1.1" xmlns="http://www.w3.org/2000/svg" xmlns:xlink="http://www.w3.org/1999/xlink">
    <!-- Generator: Sketch 53.2 (72643) - https://sketchapp.com -->
    <title>Group 11</title>
    <desc>Created with Sketch.</desc>
    <g id="Mobile" stroke="none" stroke-width="1" fill="none" fill-rule="evenodd">
        <g id="Artboard" transform="translate(-8.000000, -9.000000)">
            <g id="Group-11" transform="translate(8.000000, 9.000000)">
                <polygon id="Fill-1" fill="#FFFFFF" points="255.145763 6 233.907506 42.3415357 212.669249 6 184 6 219.908475 65.9782962 219.908475 99 246.420339 99 246.420339 65.9782962 283 6"></polygon>
                <polygon id="Fill-2" fill="#52DD00" points="110.751592 6 80 6 117.248408 52.5221323 80 99 110.751592 99 148 52.5221323"></polygon>
                <polygon id="Fill-3" fill="#FFFFFF" points="148 99 172 99 172 6 148 6"></polygon>
                <path d="M79,69.0714215 C79,54.3811984 70.3431434,45.1655927 51.2980589,39.6909754 L35.517846,35.3112815 C30.0763932,33.76014 26.8609894,32.0265112 26.8609894,27.6468173 C26.8609894,22.8109054 32.7971196,20.7579239 40.6130244,20.7579239 C52.4852849,20.7579239 62.8735128,24.3620469 72.222918,30.2928823 L72.222918,7.16262429 C63.5660614,2.78293046 53.5241077,0 39.4257984,0 C17.5115842,0 0,10.4473947 0,29.5173116 C0,45.4393235 9.6956794,53.4231404 27.2072636,58.0765651 L42.9874765,62.2737717 C48.5773325,64.1442659 51.8422041,65.6954075 51.8422041,70.394454 C51.8422041,76.3252894 44.3725736,78.0589182 35.715717,78.0589182 C23.9918597,78.0589182 11.2291797,73.6792244 2.22604884,68.0677417 L2.22604884,91.1979997 C9.89355041,95.3952063 22.4583594,98.9993294 36.3587977,98.9993294 C59.8065122,99.090573 79,89.8749672 79,69.0714215" id="Fill-4" fill="#FFFFFF"></path>
            </g>
        </g>
    </g>
</svg>