<?xml version="1.0" encoding="utf-8"?>
<!-- Generator: Adobe Illustrator 22.1.0, SVG Export Plug-In . SVG Version: 6.00 Build 0)  -->
<svg version="1.1" id="Layer_1" xmlns="http://www.w3.org/2000/svg" xmlns:xlink="http://www.w3.org/1999/xlink" x="0px" y="0px"
	 viewBox="0 0 598 220" style="enable-background:new 0 0 598 220;" xml:space="preserve">
<style type="text/css">
	.st0{fill:#671E75;}
	.st1{fill:#26DE00;}
</style>
<g>
	<polygon class="st0" points="596.1,5 538,5 493.7,87.1 449.4,5 389.6,5 464.5,140.5 464.5,215.1 519.8,215.1 519.8,140.5 	"/>
	<polygon class="st1" points="238.4,5 174.5,5 251.9,110.1 174.5,215.1 238.4,215.1 315.8,110.1 	"/>
	<rect x="315.8" y="5" class="st0" width="55.3" height="210.2"/>
	<path class="st0" d="M163,152.8c0-32.2-17.5-52.4-56-64.4l-31.9-9.6c-11-3.4-17.5-7.2-17.5-16.8c0-10.6,12-15.1,27.8-15.1
		c24,0,45,7.9,63.9,20.9V17.1C131.8,7.5,111.5,1.4,83,1.4C38.7,1.4,3.3,24.3,3.3,66.1c0,34.9,19.6,52.4,55,62.6l31.9,9.2
		c11.3,4.1,17.9,7.5,17.9,17.8c0,13-15.1,16.8-32.6,16.8c-23.7,0-49.5-9.6-67.7-21.9v50.7c15.5,9.2,40.9,17.1,69,17.1
		C124.2,218.6,163,198.4,163,152.8"/>
</g>
</svg>
